<svg width="100" height="100" viewBox="0 0 100 100" fill="none" xmlns="http://www.w3.org/2000/svg">
<path d="M86.8125 28.0833C85.9792 28.625 84.7917 29.125 84.2917 29.6875C84.1042 29.875 84 30.0833 84.0417 30.2917V32.4375L83.4167 34.5417L82.7917 36.625L82.1042 38.9167L80.6875 43.6042L79.3125 48.2292L78.2708 51.7083C78.2708 52.25 78.25 52.7917 78.2083 53.3125C78.0625 55.3125 77.6458 57.2292 76.9792 59.0208C76.5833 60.125 76.1042 61.1875 75.5208 62.1875C75.3125 62.5833 75.0625 62.9792 74.8125 63.3542C73.9792 64.6667 72.9792 65.875 71.875 66.9375C71.0208 67.7917 70.0833 68.5833 69.0625 69.25C69.0625 69.25 69.0625 69.25 69.0417 69.25C68.875 69.3958 68.6875 69.5208 68.4792 69.625C67.8333 70.0625 67.1458 70.4375 66.4375 70.7708C65.9583 71.0208 65.4792 71.2292 64.9792 71.4167C64.875 71.4792 64.75 71.5208 64.6458 71.5625C63.4583 72.125 62.0833 72.5 60.7083 72.6875C60.625 72.7083 60.5625 72.7083 60.4792 72.7292C59.6458 72.875 58.8333 73 58 73.0625C57.625 73.1042 57.2292 73.125 56.8542 73.125L55.375 73.0417L48.25 72.6667C48.25 72.6458 48.2292 72.6667 48.2292 72.6667L44.6458 72.4792C44.375 72.4792 44.0833 72.4792 43.8125 72.4583C42.6875 72.4167 41.6042 72.2917 40.5208 72.0625C40.5 72.0625 40.5 72.0625 40.5 72.0625C38.5208 71.6875 36.625 71.0208 34.8542 70.125C33.875 69.625 32.9167 69.0625 32.0208 68.4167C31.6458 68.1458 31.2917 67.8542 30.9375 67.5417C29.9375 66.7083 29.0417 65.8125 28.2083 64.8958C28.0833 64.7708 27.9792 64.6458 27.875 64.5208C27.75 64.3958 27.625 64.25 27.5208 64.125C26.7292 63.125 26.0625 62.1042 25.5208 61.0208C25.0208 60.0625 24.625 59.0417 24.3125 57.9167C24.1875 57.5208 24.0833 57.1458 24 56.7292C23.9792 56.7083 23.9583 56.6667 23.9583 56.625C23.75 55.7708 23.5625 54.875 23.4583 53.9792C23.3333 53.2917 23.2708 52.6042 23.2708 51.8958C23.2292 51.625 23.2292 51.3333 23.2292 51.0625L27.2083 44.9167L31.1042 38.9167L32.875 36.1875L34.4792 33.7292L35.0208 32.875V30.7292C35.0625 30.25 35.0833 29.75 35.0625 29.2917C35.0417 27.8333 34.75 26.4167 34.2708 25.0625C33.8125 23.625 33.1667 22.2708 32.5 21.0208C31.7083 19.5833 30.875 18.2917 30.1875 17.125C29.1667 15.4167 28.4583 14.0208 28.6458 13.0417C30.1458 12.6875 31.7292 12.5 33.3333 12.5H66.6667C75.375 12.5 82.875 17.9167 85.9792 25.5417C86.3125 26.3542 86.6042 27.2083 86.8125 28.0833Z" fill="#304FFE"/>
<path d="M87.5 33.3333V33.8958L84.625 35.5625L82.7917 36.625L80.7708 37.7917L76.7292 40.1458L72.7708 42.4375L68.7292 44.7708L67.125 45.7083C67.125 46.7083 66.875 47.625 66.4167 48.4583C65.7708 49.6667 64.6875 50.6667 63.3125 51.5208C61.9167 52.375 60.2083 53.0625 58.2917 53.5625C58.2917 53.5625 58.2917 53.5417 58.2708 53.5625C50.8542 55.4792 40.7292 54.6042 35.8125 50.9375C34.4375 49.9167 33.4792 48.6667 33.0625 47.2292C32.9375 46.75 32.875 46.2292 32.875 45.7083V30.7292C32.8958 30.4167 32.6875 30.1042 32.3125 29.7917C31.1875 28.8958 28.5417 28.0417 25.5833 27.1875C23.2708 26.5417 20.7917 25.8958 18.7083 25.2708C17.0625 24.7708 15.6667 24.2708 14.8333 23.7917C15.2083 23.0625 15.6458 22.3333 16.1042 21.6458C19.0208 17.375 23.4792 14.2292 28.6458 13.0417C30.1458 12.6875 31.7292 12.5 33.3333 12.5H55.8333C67.0208 14.4583 77.3333 19.0208 85.9792 25.5417C86.3125 26.3542 86.6042 27.2083 86.8125 28.0833C87.1875 29.4583 87.4167 30.875 87.4792 32.3542C87.5 32.6667 87.5 33 87.5 33.3333Z" fill="#4928F4"/>
<path d="M87.5 33.3333V42.5208L87.0417 43.9375L85.4792 48.7917L83.8542 53.7917L83 56.4583L82.2083 58.9375L81.4375 61.2917L80.6875 63.625L80.2917 64.8542L79.7708 66.4792C79.7708 68.0625 79.7292 69.4583 79.625 70.6458C79.6042 70.7708 79.5833 70.8958 79.5833 71.0208C79.4583 72.125 79.2917 73.0625 79.0208 73.8542C79 73.9792 78.9583 74.1042 78.9167 74.2083C78.375 75.7083 77.5625 76.6667 76.3542 77.2917C76.0625 77.4583 75.7292 77.5833 75.375 77.7083C74.2708 78.0833 72.875 78.2708 71.1667 78.375C69.9167 78.4583 68.4792 78.4792 66.8542 78.4792H65.4167L62.9375 78.375L62.5 78.3542L57.9792 78.1667L53.3958 77.9792L38.2917 77.3542L34.375 77.1875H33.8333C32.2083 77.1667 30.8125 77.0625 29.6042 76.8958C27.8542 76.625 26.5 76.1667 25.4792 75.4792C24.0208 74.5417 23.1667 73.1667 22.6667 71.25C22.5417 70.7917 22.4375 70.3125 22.375 69.7917C22.1667 68.5833 22.0625 67.1875 22 65.625C22 65.3125 22 65 21.9792 64.6667C21.9583 64.6458 21.9792 64.6458 21.9792 64.6458V63.4375C21.9583 62.8333 21.9583 62.2083 21.9583 61.5625L22.0625 58.2083L22.125 55.8125L22.2083 53.0208V52.625L22.3542 47.5L22.5 42.375L22.6458 37.5625L22.7708 32.8333L22.8125 31.5833C22.8125 30.9375 20.625 30.5625 18.1875 30.25C16.25 30 14.125 29.7708 12.8542 29.4792C12.9583 29 13.0625 28.5208 13.1875 28.0625C13.5625 26.5625 14.125 25.1458 14.8333 23.7917C15.2083 23.0625 15.6458 22.3333 16.1042 21.6458C20.6042 19.6667 25.2917 18.125 30.1875 17.125C34.4792 16.2292 38.9583 15.75 43.5833 15.75C58.9167 15.75 73.0833 20.9375 84.2917 29.6875C85.375 30.5208 86.4375 31.4167 87.4792 32.3542C87.5 32.6667 87.5 33 87.5 33.3333Z" fill="#6200EA"/>
<path d="M87.5 38.2708V47.7291L86.3542 49.9375L84.1667 54.2083L83 56.4583L81.9375 58.5208L81.4792 59.4166C81.4792 60.0625 81.4792 60.6875 81.4375 61.2916C81.4375 62.1875 81.3958 63.0416 81.3333 63.8333C81.25 64.7708 81.125 65.625 81 66.4166C80.6875 68.0625 80.25 69.4791 79.625 70.6458C79.5417 70.7916 79.4583 70.9375 79.375 71.0625C79.1458 71.4375 78.875 71.7916 78.5833 72.125C78.2083 72.5833 77.7917 72.9791 77.3125 73.3125C76.6042 73.8541 75.7708 74.2916 74.8125 74.625C73.625 75.0625 72.25 75.3541 70.625 75.5208C69.5625 75.625 68.3958 75.6875 67.125 75.6875L66.25 75.7291L61.9167 75.9791H61.8958L57.2917 76.25L52.6042 76.5208L46.1458 76.8958L38.2917 77.3541L37.1458 77.4166C36.0833 77.4166 35.0833 77.3541 34.125 77.2291C34.0208 77.2083 33.9375 77.1875 33.8333 77.1875C32.4167 76.9583 31.125 76.5833 29.9583 76.0625C28.5417 75.4375 27.3125 74.6041 26.2708 73.6041C25.3542 72.7083 24.5625 71.6875 23.9167 70.5416C23.7708 70.2708 23.625 70.0208 23.5 69.7291C22.875 68.5 22.375 67.125 22 65.625C21.9375 65.375 21.875 65.1041 21.8333 64.8333C21.7083 64.3541 21.6042 63.8541 21.5417 63.3333C21.3125 62 21.1875 60.5833 21.125 59.1041V59.0833C21.1042 58.4791 21.0833 57.8958 21.0833 57.2708L20.0625 54.8333L19.9167 54.4583L19.7917 54.1458L18.2292 50.4166L17.9792 49.8125L16.4792 46.2083L14.8125 42.1875C14.8125 42.1875 14.8125 42.1875 14.7917 42.1875L13.1042 38.125L12.5 36.6458V33.3333C12.5 32.0208 12.625 30.7291 12.8542 29.4791C12.9583 29 13.0625 28.5208 13.1875 28.0625C14.9583 27.0416 16.8125 26.1041 18.7083 25.2708C23.0417 23.3333 27.6875 21.8958 32.5 21.0208C36.0833 20.375 39.8125 20.0208 43.5833 20.0208C58.8125 20.0208 72.625 25.5416 83.4167 34.5416C83.8333 34.875 84.2292 35.2083 84.625 35.5625C85.6042 36.4166 86.5625 37.3125 87.5 38.2708Z" fill="#673AB7"/>
<path d="M87.5 44.4792V55.1875L86.3125 57.6667L84.0625 62.3542L84.0417 62.4167C84.0417 63.3125 84 64.125 83.9375 64.8542C83.7292 67.25 83.1458 68.7708 82.1875 69.7083C81.5 70.4167 80.6458 70.8125 79.5833 71.0208C79.5208 71.0417 79.4375 71.0417 79.375 71.0625C79.0417 71.125 78.6875 71.1667 78.3125 71.1667C77.0208 71.2917 75.5 71.2083 73.75 71.0833C73.5625 71.0833 73.3542 71.0625 73.1458 71.0417C71.875 70.9583 70.5208 70.875 69.0208 70.8125C68.2083 70.7917 67.3542 70.7708 66.4792 70.7708H66.4375L64.3333 70.9375H64.3125L59.5833 71.2708L54.1875 71.6875L53.3958 71.75L47.0833 72.2083L43.8125 72.4583L40.5833 72.6875C40.0208 72.6875 39.4792 72.6875 38.9375 72.6667C38.9375 72.6667 38.9167 72.6458 38.9167 72.6667C36.5625 72.625 34.4583 72.4792 32.5833 72.125C30.8542 71.8333 29.3333 71.375 28.0417 70.6875C26.7083 70.0417 25.6042 69.125 24.7083 67.9583C23.8542 66.8125 23.2292 65.375 22.8333 63.6458C22.8333 63.625 22.8333 63.625 22.8333 63.625C22.5417 62.2292 22.375 60.6042 22.375 58.7708L22.0625 58.2083L20.2083 54.8958L19.9375 54.4375L19.7917 54.1458L17.8542 50.7083L16.8958 48.9792L15.6875 46.8333L13.6042 43.1042L12.5 41.1458V33.4792C14.3333 32.2708 16.2292 31.2083 18.1875 30.25C20.5625 29.0417 23.0208 28.0208 25.5833 27.1875C28.375 26.2708 31.2917 25.5417 34.2708 25.0625C37.2917 24.5625 40.3958 24.3125 43.5833 24.3125C57.75 24.3125 70.75 29.375 80.7708 37.7917C81.2292 38.1458 81.6667 38.5417 82.1042 38.9167C83.8542 40.4792 85.5208 42.1667 87.0417 43.9375C87.2083 44.125 87.375 44.2917 87.5 44.4792Z" fill="#8E24AA"/>
<path d="M87.5 51.4791V66.5416C87 66.25 86.3125 65.8958 85.4583 65.5208C85 65.2916 84.4792 65.0625 83.9375 64.8541C83.1458 64.5 82.2917 64.1666 81.3333 63.8333C81.125 63.75 80.9167 63.6875 80.6875 63.625C80.3125 63.4791 79.9167 63.3541 79.5208 63.2291C78.2917 62.8541 76.9375 62.5 75.5208 62.1875C74.9792 62.0833 74.4167 61.9791 73.8542 61.8958C72.0417 61.5833 70.1042 61.3958 68.0833 61.375C67.9167 61.3541 67.7292 61.3541 67.5625 61.3541L62.2083 61.3958L54.9167 61.4375H54.8958L39.2917 61.5625C34.3333 61.5625 31.2917 62.75 29.4583 63.2291C29.4583 63.2291 29.4375 63.2291 29.4375 63.25C27.5 63.75 26.8958 63.4375 26.7292 60.0416C26.6875 59.1041 26.6667 57.8958 26.6667 56.4166L25.5 55.5208L23.4583 53.9791L22.2083 53.0208L21.9583 52.8333L18.5 50.2083L17.9792 49.8125L16.8958 48.9791L14.8958 47.4791L12.5 45.6458V38.5625C12.7083 38.3958 12.8958 38.25 13.1042 38.125C16.125 36.0416 19.3542 34.2708 22.7708 32.8333C25.8125 31.5416 29.0208 30.5208 32.3125 29.7916C33.2083 29.6041 34.125 29.4166 35.0625 29.2916C37.8333 28.8125 40.6875 28.5833 43.5833 28.5833C56.1042 28.5833 67.6042 32.9375 76.7292 40.1458C78.1042 41.2291 79.4375 42.375 80.6875 43.6041C82.3958 45.2291 84 46.9583 85.4792 48.7916C85.7708 49.1666 86.0625 49.5416 86.3542 49.9375C86.75 50.4375 87.125 50.9583 87.5 51.4791Z" fill="#C2185B"/>
<path d="M87.5 59.8333V66.6667C87.5 68.0208 87.375 69.3542 87.125 70.6458C86.75 72.5625 86.1042 74.3958 85.2292 76.1042C84.7708 76.2083 84.25 76.2083 83.6667 76.125C82.3542 75.8958 80.8125 75.2083 79.1458 74.3125C79.0625 74.2917 78.9792 74.25 78.9167 74.2083C78.3958 73.9375 77.8542 73.6458 77.3125 73.3125C76.2083 72.7083 75.0417 72.0417 73.875 71.4167C73.625 71.2917 73.375 71.1667 73.1458 71.0417C71.8125 70.3542 70.4375 69.7292 69.0625 69.25C69.0625 69.25 69.0625 69.25 69.0417 69.25C68.75 69.1458 68.4375 69.0417 68.125 68.9583C66.9375 68.625 65.7292 68.4167 64.5625 68.4167L62.2708 67.75L52.125 64.8125C52.125 64.8125 52.125 64.8125 52.1042 64.8125L45.875 63H45.8542L43.1458 62.2083C35.3125 62.2083 30.5 65.5417 28.1667 64.2708C27.25 63.7917 26.7083 62.5833 26.5208 60.2083C26.4583 59.5417 26.4375 58.7917 26.4375 57.9167L24 56.7292L23.8958 56.6875H23.875L22.125 55.8125L20.2083 54.8958L20.0625 54.8333L19.7083 54.6458L15.625 52.6667L12.5 51.1458V44C12.8542 43.6875 13.2292 43.3958 13.6042 43.1042C14 42.7917 14.3958 42.5 14.7917 42.1875C14.8125 42.1875 14.8125 42.1875 14.8125 42.1875C17.2708 40.4167 19.875 38.8542 22.6458 37.5625C25.875 36.0208 29.3125 34.8333 32.875 34.0625C33.3958 33.9375 33.9375 33.8125 34.4792 33.7292C37.4375 33.1667 40.4792 32.875 43.5833 32.875C54.5625 32.875 64.6458 36.4375 72.7708 42.4375C75.125 44.1875 77.3125 46.125 79.3125 48.2292C80.9583 49.9583 82.4792 51.8333 83.8542 53.7917C83.9583 53.9375 84.0625 54.0833 84.1667 54.2083C84.9375 55.3333 85.6458 56.4792 86.3125 57.6667C86.75 58.375 87.125 59.1042 87.5 59.8333Z" fill="#D81B60"/>
<path d="M87.125 70.6458C86.75 72.5625 86.1042 74.3958 85.2292 76.1041C84.8333 76.875 84.3958 77.6041 83.9167 78.3125C83.625 78.75 83.3125 79.1666 83 79.5625C82.25 79.2708 81.1458 78.8541 79.7917 78.3958C79.7917 78.3958 79.7917 78.3958 79.7917 78.375C78.7708 78.0208 77.6042 77.6458 76.3542 77.2916C76 77.1875 75.6458 77.0833 75.2708 76.9791C73.7917 76.5833 72.25 76.2291 70.75 76.0208C69.5 75.8125 68.2708 75.6875 67.125 75.6875L66.1667 75.4166H66.1458L61.1042 73.9583L58 73.0625L54.5417 72.0625H54.5208L53.3958 71.75L39.7917 67.8333L35.875 66.7083L32.9583 66.0208L28.2083 64.8958L27.625 64.75C27.625 64.75 27.625 64.75 27.6042 64.75L22.8333 63.6458C22.8333 63.625 22.8333 63.625 22.8333 63.625L21.9792 63.4375L21.5417 63.3333L18.0625 62.5208L17.6667 62.4166L14.7083 59.9791L12.5 58.125V49.625C13.2708 48.875 14.0625 48.1666 14.8958 47.4791C15.1458 47.25 15.4167 47.0416 15.6875 46.8333C15.9375 46.625 16.2083 46.4166 16.4792 46.2083C18.375 44.7708 20.375 43.4791 22.5 42.375C25.2083 40.9166 28.0833 39.75 31.1042 38.9166C31.6875 38.7291 32.2708 38.5625 32.875 38.4375C36.2917 37.5833 39.875 37.1458 43.5833 37.1458C52.8958 37.1458 61.5625 39.9583 68.7292 44.7708C72.2917 47.1666 75.5 50.0416 78.2083 53.3125C79.5833 54.9583 80.8333 56.6875 81.9375 58.5208C82.0417 58.6666 82.125 58.7916 82.2083 58.9375C82.875 60.0416 83.5 61.1875 84.0625 62.3541C84.5833 63.3958 85.0417 64.4375 85.4583 65.5208C86.125 67.1875 86.6667 68.8958 87.125 70.6458Z" fill="#F50057"/>
<path d="M83.9167 78.3125C83.625 78.75 83.3125 79.1667 83 79.5625C82.0833 80.7083 81.0833 81.75 79.9583 82.6667C78.9792 83.4792 77.9375 84.2083 76.8333 84.8333C76.4167 84.7292 76 84.6042 75.5625 84.4375C74.1875 83.9583 72.75 83.1667 71.4167 82.3333C69.4167 81.0625 67.6875 79.6875 66.9167 79.0625C66.625 78.8125 66.4792 78.6875 66.4792 78.6875L62.9375 78.375L62.5 78.3333L57.9167 77.9375L53.1667 77.5208L46.1458 76.8958L35.0208 75.9167L34.9792 75.8958L31.0625 74L27.1042 72.0833L23.9167 70.5417L23.2292 70.2083L22.375 69.7917L19.4167 68.3542L15.4792 66.4583L14.25 65.8542L12.5 65.3125V56C13.4792 54.8333 14.5208 53.7292 15.625 52.6667C16.3333 52 17.0833 51.3333 17.8542 50.7083C17.9792 50.6042 18.1042 50.5 18.2292 50.4167C18.3125 50.3125 18.4167 50.25 18.5 50.2083C19.7292 49.2083 21.0208 48.3125 22.3542 47.5C23.8958 46.5208 25.5208 45.6458 27.2083 44.9167C29.0208 44.1042 30.9167 43.4167 32.875 42.8958C36.2708 41.9375 39.875 41.4375 43.5833 41.4375C52.0833 41.4375 59.9375 44.0208 66.4167 48.4583C70.5625 51.2917 74.1458 54.875 76.9792 59.0208C77.9167 60.3542 78.75 61.7708 79.5208 63.2292C79.7917 63.7708 80.0625 64.3125 80.2917 64.8542C80.5417 65.375 80.7708 65.8958 81 66.4167C81.4375 67.5 81.8333 68.5833 82.1875 69.7083C82.8542 71.7917 83.3542 73.9167 83.6667 76.125C83.7708 76.8542 83.8542 77.5833 83.9167 78.3125Z" fill="#FF1744"/>
<path d="M79.9792 82.125C79.9792 82.2916 79.9792 82.4791 79.9583 82.6666C78.9792 83.4791 77.9375 84.2083 76.8333 84.8333C76.375 85.0833 75.9167 85.3333 75.4375 85.5416C74.9583 85.7708 74.4792 85.9791 73.9792 86.1666C73.2708 85.7916 72.3125 85.3333 71.2917 84.8958C69.8542 84.25 68.2917 83.6666 67.0833 83.4791C66.7917 83.4166 66.5208 83.3958 66.2708 83.3958L62.8542 82.9583H62.8125L58.5625 82.3958L54.2708 81.8333L52.2708 81.5833L36.5208 79.5416C35.5 79.5416 34.4167 79.4791 33.2917 79.3333C31.9167 79.2083 30.4792 79 29.0417 78.7083C27.625 78.4583 26.1875 78.125 24.8125 77.7708C23.375 77.4375 21.9583 77.0416 20.6458 76.6666C19.125 76.2083 17.7083 75.7708 16.5208 75.375C15.5417 75.0625 14.7083 74.7708 14.0625 74.5416C13.6875 73.6458 13.375 72.7083 13.1458 71.75C12.7083 70.125 12.5 68.4166 12.5 66.6666V63.1875C13.1667 62.0833 13.8958 61 14.7083 59.9791C16.1875 58.0208 17.875 56.2291 19.7083 54.6458C19.7708 54.5625 19.8542 54.5 19.9167 54.4583L19.9375 54.4375C20.5833 53.8541 21.25 53.3333 21.9583 52.8333C22.0417 52.75 22.125 52.6875 22.2083 52.625C22.5417 52.375 22.8958 52.125 23.2708 51.8958C26.25 49.875 29.5417 48.2916 33.0625 47.2291C36.3958 46.2291 39.9167 45.7083 43.5833 45.7083C50.8542 45.7083 57.6458 47.8541 63.3125 51.5208C67.5 54.2083 71.1042 57.75 73.8542 61.8958C74.1875 62.375 74.5 62.8541 74.8125 63.3541C76.25 65.7916 77.4375 68.4166 78.3125 71.1666C78.4167 71.4791 78.5 71.7916 78.5833 72.125C78.75 72.6875 78.8958 73.2708 79.0208 73.8541C79.0625 74 79.1042 74.1458 79.1458 74.3125C79.4375 75.625 79.6458 77 79.7917 78.375C79.7917 78.3958 79.7917 78.3958 79.7917 78.3958C79.9167 79.625 79.9792 80.875 79.9792 82.125Z" fill="#FF5722"/>
<path d="M75.6875 82.125C75.6875 82.8542 75.6458 83.6458 75.5625 84.4375C75.5208 84.8125 75.4792 85.1875 75.4375 85.5417C74.9583 85.7708 74.4792 85.9792 73.9792 86.1667C73.0417 86.5208 72.0833 86.8125 71.1042 87.0208C70.4375 87.1667 69.75 87.2917 69.0625 87.3542H69.0417C68.3958 86.9583 67.6458 86.4792 66.875 85.9375C65.4792 84.9583 64.0208 83.8542 62.8542 82.9583C62.8333 82.9375 62.8333 82.9375 62.8125 82.9167C61.5833 81.9792 60.7083 81.2708 60.7083 81.2708L58.5 81.3542L54.25 81.5L52.2708 81.5833L44.3125 81.875L37.5833 82.125C37.1458 82.1458 36.625 82.1458 35.9792 82.125H35.9583C35.0833 82.1042 34.0417 82.0417 32.8958 81.9375C31.5625 81.8333 30.1042 81.7083 28.625 81.5625C27.1875 81.3958 25.7292 81.2292 24.3333 81.0625C22.7917 80.8958 21.3333 80.7083 20.0833 80.5417C19.1042 80.4167 18.25 80.3125 17.5625 80.2292C16.9792 79.5625 16.4583 78.875 15.9583 78.125C15.2083 77 14.5625 75.8125 14.0625 74.5417C13.6875 73.6458 13.375 72.7083 13.1458 71.75C13.75 69.8958 14.5417 68.1458 15.4792 66.4583C16.2292 65.0833 17.1042 63.7708 18.0625 62.5208C19 61.2917 20.0208 60.1458 21.125 59.1042V59.0833C21.4375 58.7708 21.75 58.4792 22.0625 58.2083C22.6458 57.6667 23.25 57.1667 23.875 56.6875H23.8958C23.9167 56.6458 23.9375 56.6458 23.9583 56.625C24.4583 56.2292 24.9792 55.875 25.5 55.5208C28.5833 53.4167 32.0625 51.8542 35.8125 50.9375C38.2917 50.3333 40.8958 50 43.5833 50C48.875 50 53.875 51.2708 58.2708 53.5625H58.2917C62.0625 55.5 65.3958 58.1667 68.0833 61.375C69.5625 63.0833 70.8333 64.9583 71.875 66.9375C72.6042 68.2708 73.2292 69.6667 73.75 71.0833C73.7917 71.2083 73.8333 71.3125 73.875 71.4167C74.2292 72.4583 74.5417 73.5417 74.8125 74.625C75 75.3958 75.1458 76.1875 75.2708 76.9792C75.3125 77.2292 75.3542 77.4583 75.375 77.7083C75.5833 79.1458 75.6875 80.625 75.6875 82.125Z" fill="#FF6F00"/>
<path d="M71.4167 82.125V82.3334C71.4167 83.0417 71.3542 83.9375 71.2917 84.8959C71.2292 85.6042 71.1667 86.3334 71.1042 87.0209C70.4375 87.1667 69.75 87.2917 69.0625 87.3542H69.0417C68.25 87.4584 67.4792 87.5 66.6667 87.5H63.0208L62.2292 87.2709L58.125 86.0209L53.9583 84.7709L44.3125 81.875L40.1458 80.625C40.1458 80.625 38.4167 81.3125 35.9792 82.125H35.9583C35.0208 82.4375 34 82.7709 32.9167 83.1042C31.5625 83.5 30.125 83.8958 28.7083 84.2083C27.25 84.5417 25.8125 84.7917 24.5208 84.8959C24.125 84.9375 23.7292 84.9584 23.375 84.9584C22.2083 84.3125 21.0833 83.5417 20.0625 82.6875C19.1667 81.9375 18.3333 81.125 17.5625 80.2292C16.9792 79.5625 16.4583 78.875 15.9583 78.125C16.1042 77.1875 16.2708 76.2709 16.5208 75.375C17.1458 72.8959 18.125 70.5209 19.4167 68.3542C20.125 67.125 20.9167 65.9375 21.8333 64.8334C21.8542 64.7709 21.9167 64.7084 21.9792 64.6667C21.9583 64.6459 21.9792 64.6459 21.9792 64.6459C22.25 64.2917 22.5417 63.9584 22.8333 63.6459C22.8333 63.625 22.8333 63.625 22.8333 63.625C23.6875 62.7084 24.5625 61.8334 25.5208 61.0209C25.8542 60.75 26.1667 60.4792 26.5208 60.2084C26.5833 60.1459 26.6458 60.1042 26.7292 60.0417C31.4167 56.4584 37.2708 54.2917 43.5833 54.2917C50.75 54.2917 57.2708 56.9792 62.2083 61.3959C64.5833 63.5417 66.6042 66.1042 68.125 68.9584C68.25 69.1667 68.375 69.3959 68.4792 69.625C68.6667 70 68.8542 70.3959 69.0208 70.8125C69.7083 72.3125 70.25 73.8959 70.625 75.5209C70.6667 75.6875 70.7083 75.8542 70.75 76.0209C70.9167 76.7917 71.0625 77.5834 71.1667 78.375C71.3333 79.6042 71.4167 80.8542 71.4167 82.125Z" fill="#FF9800"/>
<path d="M67.125 82.125C67.125 82.5417 67.1042 83 67.0833 83.4792C67.0417 84.25 66.9792 85.0833 66.875 85.9375C66.8333 86.4583 66.75 86.9792 66.6667 87.5H55.25L53.0417 87.1458L44.4167 85.7708L43.1875 85.5833L40.375 85.125C39.1458 85.125 36.4792 85.6667 33.6667 86.1875C32.1875 86.4583 30.6875 86.75 29.3333 86.9375C29.1667 86.9583 29 86.9792 28.8542 87H28.8333C27.375 86.6875 25.9583 86.2083 24.625 85.5833C24.2083 85.3958 23.7917 85.1875 23.375 84.9583C22.2083 84.3125 21.0833 83.5417 20.0625 82.6875C20.0417 82.4375 20.0208 82.2292 20.0208 82.125C20.0208 81.5833 20.0417 81.0625 20.0833 80.5417C20.1667 79.2083 20.3542 77.9167 20.6458 76.6667C21.1042 74.7708 21.7708 72.9375 22.6667 71.25C22.8333 70.8958 23.0208 70.5417 23.2292 70.2083C23.3125 70.0417 23.4167 69.8958 23.5 69.7292C23.875 69.125 24.2917 68.5417 24.7083 67.9583C25.5833 66.8125 26.5625 65.7292 27.6042 64.75C27.625 64.75 27.625 64.75 27.625 64.75C27.7083 64.6667 27.7917 64.5833 27.875 64.5208C27.9792 64.4375 28.0625 64.3333 28.1667 64.2708C28.5833 63.8958 29 63.5625 29.4375 63.25C29.4375 63.2292 29.4583 63.2292 29.4583 63.2292C33.3958 60.2917 38.2708 58.5625 43.5833 58.5625C47.7083 58.5625 51.5417 59.6042 54.8958 61.4375H54.9167C57.7917 63.0208 60.2917 65.1667 62.2708 67.75C63.0417 68.75 63.7292 69.8125 64.3125 70.9375H64.3333C64.4375 71.1458 64.5417 71.3542 64.6458 71.5625C65.2708 72.7917 65.7708 74.0833 66.1458 75.4167H66.1667C66.1875 75.5208 66.2292 75.625 66.25 75.7292C66.5 76.625 66.7083 77.5417 66.8542 78.4792C66.875 78.6667 66.8958 78.875 66.9167 79.0625C67.0625 80.0625 67.125 81.0833 67.125 82.125Z" fill="#FFC107"/>
<path d="M62.8542 81.8959C62.8542 82.2292 62.8542 82.5834 62.8125 82.9167V82.9375C62.8125 82.9584 62.8125 82.9584 62.8125 82.9584C62.7708 84.4584 62.5625 85.9375 62.2292 87.2709C62.2292 87.3542 62.2083 87.4167 62.1667 87.5H52.4375L44.4167 85.7708L43.3542 85.5417L43.1875 85.5834L34.2917 87.4167L33.8958 87.5H33.3333C32 87.5 30.6875 87.375 29.4167 87.125C29.2292 87.0834 29.0417 87.0417 28.8542 87H28.8333C27.375 86.6875 25.9583 86.2084 24.625 85.5834C24.5833 85.3542 24.5417 85.125 24.5208 84.8959C24.375 84 24.3125 83.0625 24.3125 82.125C24.3125 81.7708 24.3125 81.4167 24.3333 81.0625C24.3958 79.9375 24.5625 78.8334 24.8125 77.7709C24.9792 76.9792 25.2083 76.2084 25.4792 75.4792C25.7083 74.8334 25.9792 74.2084 26.2708 73.6042C26.5208 73.0834 26.8125 72.5834 27.1042 72.0834C27.3958 71.6042 27.7083 71.1459 28.0417 70.6875C28.875 69.5417 29.8542 68.4792 30.9375 67.5417C31.5625 67 32.25 66.4792 32.9583 66.0209C36 64.0209 39.6458 62.8542 43.5833 62.8542C44.3542 62.8542 45.1042 62.8959 45.8333 63H45.875C48.1042 63.25 50.1875 63.875 52.1042 64.8125C52.125 64.8125 52.125 64.8125 52.125 64.8125C55.1458 66.2917 57.7083 68.5209 59.5833 71.2709C59.8958 71.7292 60.2083 72.2292 60.4792 72.7292C60.7083 73.125 60.9167 73.5417 61.1042 73.9584C61.3958 74.6042 61.6667 75.2917 61.8958 75.9792H61.9167C62.1458 76.75 62.3542 77.5209 62.5 78.3334V78.3542C62.7292 79.5 62.8542 80.6875 62.8542 81.8959Z" fill="#FFD54F"/>
<path d="M58.5625 82.3333V82.3958C58.5625 83.625 58.4167 84.8333 58.125 86.0208C58.0208 86.5208 57.875 87.0208 57.6875 87.5H48.3542L43.5833 86.1875L38.8125 87.5H33.3333C32 87.5 30.6875 87.375 29.4167 87.125C29.375 87.0625 29.3542 87 29.3333 86.9375C29.0417 86.0416 28.8125 85.1458 28.7083 84.2083C28.625 83.6041 28.5833 82.9791 28.5833 82.3333C28.5833 82.0833 28.5833 81.8125 28.625 81.5625C28.6458 80.5833 28.7917 79.625 29.0417 78.7083C29.1667 78.0833 29.3542 77.4791 29.6042 76.8958C29.6875 76.6041 29.8125 76.3333 29.9583 76.0625C30.2708 75.3541 30.6458 74.6666 31.0625 74C31.5208 73.3333 32.0208 72.7083 32.5833 72.125C33.25 71.375 34 70.6875 34.8542 70.125C36.3125 69.0625 37.9792 68.2708 39.7917 67.8333C41 67.5 42.2708 67.3333 43.5833 67.3333C47.75 67.3333 51.4792 69 54.1875 71.6875C54.2917 71.7916 54.4167 71.9166 54.5208 72.0625H54.5417C54.8333 72.375 55.1042 72.6875 55.375 73.0416C56.1458 74.0208 56.7917 75.0833 57.2917 76.25C57.5417 76.7916 57.75 77.3541 57.9167 77.9375C57.9375 78.0208 57.9583 78.0833 57.9792 78.1666C58.2708 79.1875 58.4583 80.25 58.5 81.3541C58.5417 81.6666 58.5625 82 58.5625 82.3333Z" fill="#FFE082"/>
<path d="M54.2917 82.3333C54.2917 83.1875 54.1875 84 53.9583 84.7708C53.75 85.6042 53.4375 86.3958 53.0417 87.1458C52.9792 87.2708 52.8333 87.5 52.8333 87.5H34.3333C34.3125 87.4792 34.2917 87.4375 34.2917 87.4167C34.0417 87.0208 33.8333 86.625 33.6667 86.1875C33.25 85.2292 33 84.1875 32.9167 83.1042C32.875 82.8542 32.875 82.5833 32.875 82.3333C32.875 82.2083 32.875 82.0625 32.8958 81.9375C32.9167 81.0208 33.0417 80.1458 33.2917 79.3333C33.5 78.5833 33.7708 77.8958 34.125 77.2292C34.125 77.2292 34.1458 77.2083 34.1458 77.1875C34.3958 76.75 34.6667 76.3125 34.9792 75.8958C36 74.5208 37.3542 73.3958 38.9167 72.6667C38.9375 72.6667 38.9375 72.6667 38.9375 72.6667C39.4375 72.4167 39.9583 72.2083 40.5 72.0625C40.5 72.0625 40.5 72.0625 40.5208 72.0625C41.4792 71.7708 42.5208 71.625 43.5833 71.625C44.8125 71.625 46 71.8125 47.0833 72.2083C47.4792 72.3125 47.8542 72.4792 48.2292 72.6667C48.2292 72.6667 48.2292 72.6667 48.25 72.6667C50.0417 73.5208 51.5625 74.8542 52.6042 76.5208C52.8125 76.8333 53 77.1667 53.1667 77.5208C53.25 77.6667 53.3333 77.8333 53.3958 77.9792C53.875 79.0625 54.1667 80.25 54.25 81.5C54.2708 81.6042 54.2708 81.7083 54.2708 81.8333C54.2917 82 54.2917 82.1667 54.2917 82.3333Z" fill="#FFECB3"/>
<path d="M62.5 22.9167H37.5C29.375 22.9167 22.9167 29.375 22.9167 37.5V62.5C22.9167 70.625 29.375 77.0834 37.5 77.0834H62.5C70.625 77.0834 77.0833 70.625 77.0833 62.5V37.5C77.0833 29.375 70.625 22.9167 62.5 22.9167Z" stroke="white" stroke-width="4.16667" stroke-miterlimit="10" stroke-linecap="round" stroke-linejoin="round"/>
<path d="M64.5833 35.4167C65.7339 35.4167 66.6667 34.4839 66.6667 33.3333C66.6667 32.1827 65.7339 31.25 64.5833 31.25C63.4327 31.25 62.5 32.1827 62.5 33.3333C62.5 34.4839 63.4327 35.4167 64.5833 35.4167Z" fill="white"/>
<path d="M50 62.5C56.9036 62.5 62.5 56.9036 62.5 50C62.5 43.0964 56.9036 37.5 50 37.5C43.0964 37.5 37.5 43.0964 37.5 50C37.5 56.9036 43.0964 62.5 50 62.5Z" stroke="white" stroke-width="4.16667" stroke-miterlimit="10" stroke-linecap="round" stroke-linejoin="round"/>
</svg>
